<?xml version="1.0" encoding="utf-8"?>
<!-- Generator: Adobe Illustrator 23.0.2, SVG Export Plug-In . SVG Version: 6.00 Build 0)  -->
<svg version="1.1" xmlns="http://www.w3.org/2000/svg" xmlns:xlink="http://www.w3.org/1999/xlink" x="0px" y="0px"
	 viewBox="0 0 550.96 558.78" style="enable-background:new 0 0 550.96 558.78;" xml:space="preserve">
<style type="text/css">
	.st0{fill:none;}
	.st1{display:none;}
	.st2{fill:#808080;}
	.st3{fill:#FFFFFF;}
	.st4{fill:#E5D877;}
	.st5{fill-rule:evenodd;clip-rule:evenodd;fill:none;stroke:#92B8BB;stroke-width:6;}
	.st6{fill:#92B8BB;}
</style>
<g id="Layer_2">
</g>
<g id="Layer_3">
	<path id="SVGID_x5F_1_x5F_" class="st0" d="M121.96-64.47c88.1-89.16,231.8-90.02,320.96-1.92s90.02,231.8,1.92,320.96
		s-231.8,90.02-320.96,1.92S33.86,24.69,121.96-64.47z"/>
	<text class="st1">	<textPath  xlink:href="#SVGID_x5F_1_x5F_" startOffset="83.0893%"  style="display:inline;">
<tspan  style="font-family:'GlassAntiqua-Regular'; font-size:45px; letter-spacing:85;">TEMPLE INN &amp; SUITES</tspan>	</textPath>
</text>
	<g>
		<polygon class="st2" points="360.61,448.61 190.88,448.61 190.88,275.59 197.41,275.59 197.15,255.31 200.88,255.31 
			200.88,239.31 204.35,239.31 211.82,208.63 218.75,238.51 222.75,238.51 222.75,254.51 225.95,254.51 225.95,275.05 
			232.09,275.05 232.09,308.93 249.96,308.93 249.96,274.79 258.5,274.79 258.5,251.85 261.96,251.85 261.96,232.11 264.9,232.11 
			273.43,183.83 283.57,231.31 286.5,231.31 286.5,251.31 292.1,251.31 292.1,274.79 299.57,274.79 299.57,309.46 317.71,309.46 
			317.71,274.79 325.71,274.79 325.71,255.58 328.65,255.58 328.65,240.38 331.58,240.38 339.32,209.43 345.99,239.58 
			350.79,239.58 350.79,255.85 353.99,255.85 353.99,274.79 360.61,274.79 		"/>
		<polygon class="st3" points="216.08,319.87 207.28,319.87 207.28,302.53 211.68,300.13 216.08,303.59 		"/>
		<polygon class="st3" points="216.08,350.28 207.28,350.28 207.28,332.94 211.68,330.54 216.08,334.01 		"/>
		<polygon class="st3" points="216.08,377.75 207.28,377.75 207.28,360.41 211.68,358.01 216.08,361.48 		"/>
		<polygon class="st3" points="216.08,407.52 207.28,407.52 207.28,390.18 211.68,387.78 216.08,391.25 		"/>
		<polygon class="st3" points="216.08,436.16 207.28,436.16 207.28,418.83 211.68,416.43 216.08,419.89 		"/>
		<polygon class="st3" points="245.47,377.75 236.67,377.75 236.67,360.41 241.07,358.01 245.47,361.48 		"/>
		<polygon class="st3" points="344.39,319.87 335.58,319.87 335.58,302.53 339.98,300.13 344.39,303.59 		"/>
		<polygon class="st3" points="344.39,350.28 335.58,350.28 335.58,332.94 339.98,330.54 344.39,334.01 		"/>
		<polygon class="st3" points="344.39,377.75 335.58,377.75 335.58,360.41 339.98,358.01 344.39,361.48 		"/>
		<polygon class="st3" points="344.39,407.52 335.58,407.52 335.58,390.18 339.98,387.78 344.39,391.25 		"/>
		<polygon class="st3" points="344.39,436.16 335.58,436.16 335.58,418.83 339.98,416.43 344.39,419.89 		"/>
		<polygon class="st3" points="314.51,376.62 305.71,376.62 305.71,359.29 310.11,356.89 314.51,360.35 		"/>
		<polygon class="st3" points="269.97,318.53 278.77,318.53 278.77,291.32 274.37,287.59 269.97,290.79 		"/>
		<polygon class="st3" points="280.63,377.75 268.36,377.75 268.36,337.2 274.5,330.54 280.63,336.4 		"/>
		<polygon class="st3" points="280.63,436.96 268.36,436.96 268.36,396.42 274.5,389.76 280.63,395.62 		"/>
		<path class="st3" d="M246.67,436.96c-0.8,0.53-11.2,0-11.2,0v-22.14l5.65-5.07l5.56,4.53V436.96z"/>
		<path class="st3" d="M315.71,436.96c-0.8,0.53-11.2,0-11.2,0v-22.14l5.65-5.07l5.56,4.53V436.96z"/>
		<ellipse class="st3" cx="241.07" cy="335.6" rx="4.36" ry="6.14"/>
		<ellipse class="st3" cx="310.11" cy="335.6" rx="4.36" ry="6.14"/>
		<ellipse class="st3" cx="310.11" cy="391.52" rx="4.36" ry="6.14"/>
		<ellipse class="st3" cx="241.07" cy="391.52" rx="4.36" ry="6.14"/>
		<path class="st4" d="M282.53,154.64c-0.02-0.66-0.54-1.63-0.54-1.63l0.22-0.15l-0.86-3.05c0,0-1.14-3.43-1.49-5.61
			c-0.36-2.19-0.63-1.92-1.12-2.26s-3.73-1.05-3.73-1.05v-0.54c0,0,0.98-0.46,0.95-2.85c-0.03-2.39-2.44-3.02-2.44-3.02l-1.58,0.05
			l0.02,0.17l-0.71,0.97l-1,0.88l0.24,0.14l-0.02,0.32l-0.14-0.02l-9.45-4.22l-0.07-0.66c-0.9-0.86-2.22-0.71-2.22-0.71l-0.14,0.22
			c0,0-6.11-3.05-6.38-3.05c-0.27,0-1.09-1.36-1.09-1.36c-2.04,0.61-0.81,2.99-0.81,2.99c1.49-0.54,2.44,0,2.44,0l5.77,2.24
			c1.15,3.94,1.9,6.65,1.9,6.65v2.78c0,0,2.37,1.9,3.26,2.58c0.88,0.68,3.39,0.47,3.39,0.47l1.09,5.09
			c-0.95,6.04-0.48,8.07-0.61,9.16c-0.14,1.09,1.09,6.72,1.09,6.72s0.68,7.06,0.95,6.58c0.27-0.47,1.7,0,1.7,0l0.95,0.54l0.07,1.42
			l-1.42,1.02l0.14,0.61c-6.45,3.94-1.59,12.96,5.36,9.57c6.14-5.16,0-9.57,0-9.57c-0.21-0.15-0.48-1.21-0.48-1.21l-0.13-0.89
			l0.13-2.82c0.36,0.13,1.09,0,1.35-0.2c0.25-0.2,1.15-0.13,1.15-0.13s-2.05-20.58-1.58-21.04c0.47-0.46,0.64-2.2,0.64-2.2
			c0.48,0.05,0.53,1.71,0.53,1.71l0.47,0.54l0.02,0.95c1.09,1.44,1,2.83,1,2.83l1.39-0.02l0.58,0.92l-0.03,0.25l-0.44,0.49
			l-0.03,0.56l-0.17-0.03l0.03,0.31c-0.01-0.08-0.03-0.19-0.03,0.12c0,0.43,0.32,0.98,0.73,1.01c0.36-0.03,1.19-0.25,1.19-0.25
			S282.55,155.3,282.53,154.64z M271.15,140.38l-0.51,0.24l-6.36-0.78c0,0-2.07-2.49-2.92-3.04c-0.85-0.54-0.93-2.1-0.93-2.1
			l0.32-1.27l9.53,4v0.93c0.22,0.86,0.87,1.09,0.87,1.09V140.38z"/>
		<g>
			<g>
				<g>
					<g>
						<path class="st5" d="M213.18,64.75c11.18-3.11,22.58-5.35,34.08-6.89c11.52-1.4,23.13-1.91,34.73-1.68
							c11.6,0.31,23.16,1.6,34.58,3.58l8.54,1.67c2.82,0.66,5.63,1.38,8.45,2.06c2.83,0.63,5.59,1.54,8.37,2.35l4.17,1.24
							c1.4,0.39,2.74,0.94,4.12,1.4c11.02,3.64,21.67,8.32,31.98,13.63l3.86,2.01c0.64,0.34,1.29,0.66,1.92,1.01l1.88,1.1l7.51,4.38
							l7.3,4.74l1.82,1.18c0.6,0.4,1.18,0.84,1.77,1.26l3.53,2.54c9.38,6.81,18.35,14.23,26.55,22.44c1.03,1.02,2.11,1.99,3.1,3.05
							l2.98,3.17l2.98,3.17c0.49,0.53,1,1.05,1.48,1.59l1.41,1.66l5.63,6.63l5.31,6.89"/>
						<g>
							<path class="st6" d="M376.1,79.03c0.95-0.04,1.81-0.21,2.54-0.47c0.72-0.25,1.33-0.6,1.78-1.04
								c0.91-0.88,1.25-2.11,0.78-3.48c-1.55-4.74-6.82-6.4-8.63-5.95c0.51-0.8,0.36-1.8-0.1-2.76c-0.47-0.95-1.28-1.82-2.04-2.44
								c-2.01-1.6-4.46-2.89-8.02-0.59c-2.31,1.86-4.8,3.06-7.28,3.39c-2.49,0.35-4.97-0.13-7.4-1.36c-0.53,0.91-0.9,1.88-1.14,2.9
								c-0.4,0.97-0.66,1.97-0.77,3.01c2.6,0.48,4.8,1.68,6.44,3.46c1.63,1.8,2.72,4.13,3.02,7.14c0.87,4.1,3.17,4.74,5.53,4.9
								c0.9,0.07,2.01-0.06,2.95-0.38c0.94-0.31,1.73-0.88,1.99-1.8c0.8,1.68,4.97,4.33,9.53,2.48c1.3-0.45,2.08-1.44,2.25-2.71
								c0.08-0.64,0.02-1.34-0.21-2.08C377.08,80.52,376.68,79.78,376.1,79.03z"/>
						</g>
						<g>
							<g>
								<path class="st6" d="M209.98,66.05c-5.25,2.34-9.81,5.51-6.43,8.73c2.13,2.07,6.57-0.91,7.92-2.46
									c-0.91,1.05-1.56,3.54,0.09,4.63c1.07,0.82,2.68,0.4,4.75-0.7c2.08-1.06,4.6-2.91,7.44-5.19c0.55-0.52,1.1-1.01,1.65-1.49
									c0.56-0.45,1.12-0.87,1.68-1.27c1.12-0.8,2.23-1.53,3.34-2.17c2.22-1.27,4.39-2.35,6.52-2.99c2.13-0.64,4.2-1.04,6.16-1.25
									c1.97-0.19,3.84-0.29,5.62-0.04c-1.41,0.32-2.72,0.87-3.92,1.45c-1.2,0.58-2.31,1.23-3.3,1.92
									c-1.98,1.39-3.52,2.94-4.57,4.5c-2.08,3.25-2.26,6.39-0.42,8.03c2.11,2,4.79,2.4,7.19,1.89c2.4-0.5,4.56-1.86,5.56-3.03
									c-0.54,2.98,2.26,4.56,4.46,4.87c2.91,0.42,5.99-0.06,9.84-5.85c1.5-2.7,2.97-4.77,4.37-6.4c0.7-0.81,1.38-1.52,2.04-2.11
									c0.66-0.57,1.31-1.05,1.93-1.47c2.5-1.65,4.64-2.21,6.51-3.08c0.96-0.43,1.77-0.59,2.38-0.54c0.61,0.07,1.03,0.32,1.21,0.64
									c0.38,0.66-0.15,1.57-1.8,2.03c-5.36,2.6-7.99,5.05-9.24,7.22c-1.25,2.16-1.13,4.04-0.81,5.46
									c0.73,2.89,5.25,4.58,8.42,2.77c-0.79,2.68-0.93,4.92-0.28,6.7c0.32,0.89,0.85,1.66,1.58,2.31
									c0.74,0.66,1.69,1.27,2.88,1.73c3.06,1,5.39,0.34,7.16-1.49c1.76-1.75,2.96-4.72,3.6-8.46c1.22,2.32,3.32,3.03,5.29,2.29
									c1.97-0.78,3.83-2.8,4.45-6.31c1.95-10.22,4.32-10.46,7.6-13.04c3.3-2.62,6.75-1.54,3.77,0.28
									c-3.34,2.29-5.08,5.14-5.59,7.53c-0.51,2.41,0.19,4.44,1.81,5.35c3.2,2.04,5.98,1.74,9.73-1.25
									c0.19,1.2,0.76,2.12,1.53,2.82c0.76,0.7,1.72,1.1,2.7,1.14c1.96,0.07,4.05-1.33,4.76-4.81c1.94-5.59,4.79-8.42,7.41-9.61
									c2.61-1.17,4.99-0.85,5.99-0.46"/>
							</g>
							<g>
								<path class="st6" d="M209.79,65.42c-5.6,1.06-11.38,1.12-10.57-3.4c0.54-2.91,6.35-3.14,8.38-2.64
									c-1.39-0.33-3.44-1.98-2.58-3.85c0.51-1.28,2.23-2.02,4.82-2.21c2.59-0.15,6.01,0.16,9.8,0.73
									c0.77,0.18,1.53,0.33,2.27,0.48c0.75,0.17,1.48,0.33,2.2,0.47c1.44,0.28,2.82,0.49,4.15,0.64c2.66,0.32,5.11,0.29,7.42,0.25
									c2.31-0.04,4.45-0.29,6.45-0.68c2-0.38,3.85-1,5.61-1.52c-1.51-0.08-2.95-0.16-4.32-0.35c-1.37-0.19-2.67-0.47-3.88-0.82
									c-2.43-0.71-4.54-1.71-6.2-2.85c-3.29-2.14-4.82-4.94-3.46-7.23c1.48-2.86,4.46-4,7.39-4.33c2.94-0.31,5.82,0.24,7.27,1.09
									c-1.47-2.77,1.41-4.93,4.02-5.74c3.38-1.02,7.48-1.51,12.8,3.97c2.1,2.51,3.96,4.41,5.64,5.87c0.84,0.73,1.64,1.34,2.4,1.89
									c0.76,0.57,1.49,1.05,2.18,1.46c2.76,1.64,5.03,2.19,7,3.05c1.01,0.43,1.85,0.57,2.49,0.53c0.64-0.01,1.09-0.22,1.31-0.52
									c0.43-0.6-0.06-1.62-1.82-2.15c-5.68-2.57-8.76-5.01-10.3-7.17c-1.55-2.16-1.55-4.02-1.25-5.45
									c0.64-2.9,6.32-4.61,10.22-2.82c-0.9-2.68-1.05-4.92-0.15-6.7c0.45-0.89,1.17-1.67,2.18-2.32c1.02-0.64,2.33-1.1,3.98-1.44
									c4.23-0.65,7.36,0.25,9.39,2.28c2.03,2.11,2.98,5.29,3.03,9.1c1.92-2.02,4.73-2.26,6.97-1.11c2.25,1.1,3.86,3.81,3.57,7.32
									c-0.65,10.41,1.72,11.34,4.21,14.76c2.46,3.33,6.03,3.79,3.82,0.92c-2.49-3.33-3.46-6.44-3.23-8.91
									c0.22-2.45,1.65-4.18,3.78-4.53c4.27-0.71,7.34,0.83,10,5.04c0.71-1,1.76-1.67,2.88-1.91c1.12-0.24,2.32-0.11,3.37,0.35
									c2.1,0.93,3.53,3.19,2.46,6.59c-0.89,5.89,0.33,9.59,1.96,12.01c1.63,2.43,3.74,3.45,4.79,3.67"/>
							</g>
						</g>
						<g>
							<g>
								<path class="st6" d="M432.08,116.86c1.93,2.19,3.27,4.78,1.05,5.5c-1.44,0.49-2.79-1.99-3.13-2.95
									c0.21,0.68-0.02,1.96-1.04,2.1c-1.37,0.27-2.81-2.09-4.39-5.51c-0.55-1.46-1.16-2.77-1.84-3.91
									c-0.71-1.1-1.48-2.06-2.27-2.9c-1.58-1.66-3.27-2.82-4.91-3.63c4.16,4.4,4.09,9.72,1.54,10.26c-3,0.81-5.29-2.29-5.61-3.88
									c-0.53,1.49-2.18,1.36-3.27,0.87c-1.46-0.62-2.84-1.63-2.97-5.29c0.12-3.21-0.32-5.25-0.91-6.71
									c-0.61-1.44-1.4-2.26-1.96-3.16c-1.18-1.82-2.56-0.96-1.4,0.39c3.2,5.17,1.86,7.32,0.82,8.31
									c-0.56,0.52-1.45,0.57-2.34,0.32c-0.89-0.24-1.76-0.81-2.22-1.66c-0.83,2.72-2.31,3.96-5.02,3.21
									c-3.35-1.14-3.49-4.14-1.79-7.58c-2.48,1.14-4.64-1.49-2.97-4.71c2.39-4.75,1.5-5.61,0.99-7.7
									c-0.51-2.09-2.19-2.83-1.6-1.12c1.17,4.05-0.68,6.7-2.6,6.37c-1.96-0.3-3.07-1.3-3.62-3.7c-1.89,1.62-5.1-0.24-3.32-3.4
									c1.12-2.82,0.96-4.85,0.37-6.22c-0.6-1.33-1.61-2-2.13-2.19"/>
							</g>
							<g>
								<path class="st6" d="M432.31,116.61c2.39,1.69,4.92,3.06,5.56,0.75c0.38-1.46-2.12-2.89-3.21-3.05
									c0.72,0.13,2.03-0.2,2.04-1.22c0.11-1.38-2.6-2.66-6.29-3.85c-1.56-0.37-2.93-0.84-4.18-1.35c-1.28-0.48-2.4-1.02-3.41-1.62
									c-2.01-1.19-3.53-2.59-4.72-4.04c5.23,3.07,10.69,2.04,10.62-0.59c0.05-3.16-3.83-4.97-5.49-4.95
									c1.33-0.84,0.72-2.55-0.15-3.55c-1.16-1.27-2.78-2.41-6.45-1.49c-3.11,1.05-5.2,1.27-6.8,1.17
									c-1.61-0.08-2.74-0.45-3.81-0.63c-2.2-0.37-1.99-1.99-0.22-1.44c6.3,0.91,7.78-0.76,8.35-2.19
									c0.27-0.71-0.01-1.66-0.66-2.44c-0.65-0.77-1.64-1.39-2.69-1.53c2.27-1.78,2.81-3.64,0.65-6.05
									c-2.91-2.91-5.86-1.98-8.2,1.17c-0.3-2.77-4.08-3.59-6.03-0.54c-2.97,4.41-4.19,4.04-6.26,4.63
									c-2.03,0.57-3.56-0.46-1.79-0.86c4.05-1,5.47-3.91,4.05-5.52c-1.38-1.67-3.05-1.95-5.44-1.13c0.22-2.49-3.47-4.23-4.92-0.9
									c-1.61,2.56-3.33,3.6-4.76,3.94c-1.45,0.38-2.61,0.05-3.09-0.22"/>
							</g>
						</g>
					</g>
					<g>
						<path class="st5" d="M468.67,159.42c25.73,38.63,39.48,85.11,38.84,131.52c-0.23,11.59-1.15,23.18-3.06,34.63
							c-1.96,11.43-4.7,22.73-8.22,33.78c-3.64,11.02-8.07,21.76-13.21,32.16l-4.02,7.72c-1.39,2.54-2.9,5.02-4.35,7.53
							c-1.41,2.54-3.03,4.95-4.61,7.38c-1.59,2.43-3.11,4.9-4.86,7.21"/>
						<g>
							<path class="st6" d="M505.44,318.8c1.24,3.57,4.01,5.05,6.28,3.31c2.04-1.46,3.1-3.58,3.51-5.52
								c0.33-1.95,0.03-3.72-0.49-4.53c1.85,0.47,3.57-1.8,4.31-3.64c0.47-1.2,0.88-2.48,0.68-3.8c-0.21-1.32-0.95-2.68-2.62-4.02
								c-2.56-1.62-4.37-3.62-5.41-5.88c-0.26-0.56-0.47-1.14-0.64-1.74c-0.19-0.6-0.34-1.2-0.44-1.83
								c-0.19-1.25-0.2-2.55-0.01-3.89c-1.03-0.22-2.06-0.27-3.1-0.18c-1.04-0.08-2.07-0.02-3.1,0.2c0.2,1.31,0.2,2.58,0.01,3.79
								c-0.09,0.6-0.24,1.19-0.43,1.76c-0.21,0.57-0.48,1.12-0.79,1.64c-1.24,2.11-3.23,3.86-5.92,5.07
								c-1.79,1.05-2.64,2.17-2.96,3.31c-0.33,1.15-0.23,2.32,0.04,3.46c0.39,1.74,1.67,4.09,3.57,4.03
								c-0.65,0.63-1.27,2.16-1.31,3.99c-0.12,1.82,0.3,3.94,1.86,5.83C500.17,322.39,503.23,321.91,505.44,318.8z"/>
						</g>
						<g>
							<g>
								<path class="st6" d="M466.44,156.78c-1.91-2.14-3.91-4.11-5.8-4.92c-1.9-0.81-3.52-0.56-4.5,1.5
									c-1.19,2.58,2.91,5.95,4.79,6.76c-1.27-0.55-3.83-0.4-4.37,1.5c-0.44,1.27,0.39,2.71,2.11,4.3
									c0.89,0.78,1.92,1.66,3.12,2.59c1.21,0.92,2.59,1.89,4.1,2.9c1.31,0.74,2.54,1.5,3.7,2.29c1.11,0.82,2.12,1.67,3.07,2.52
									c1.89,1.72,3.5,3.5,4.84,5.29c2.57,3.65,4,7.38,4.86,10.81c-1.65-2.41-3.53-4.36-5.43-5.83c-0.95-0.73-1.92-1.35-2.86-1.85
									c-0.95-0.49-1.95-0.84-2.87-1.1c-3.71-1-6.75-0.2-7.75,2.06c-0.66,1.33-0.84,2.64-0.69,3.88c0.15,1.24,0.52,2.46,1.13,3.53
									c1.19,2.14,3.12,3.79,4.55,4.38c-3.05,0.42-3.52,3.5-3.22,5.72c0.24,1.44,0.69,2.9,1.93,4.19c1.23,1.31,3.35,2.42,6.67,3.39
									c6.03,1.22,9.63,3.05,12.06,4.87c2.37,1.86,3.5,3.75,4.89,5.26c2.81,3.16,0.44,5.24-1.49,2.37
									c-4.07-4.32-7.13-6.09-9.68-6.58c-2.49-0.51-4.23,0.19-5.48,0.92c-1.27,0.78-1.84,2.37-1.89,4.08
									c-0.05,1.72,0.54,3.55,1.88,4.8c-5.56,0.15-8.71,2.24-8.84,7.3c-0.02,3.23,1.26,5.27,3.54,6.39
									c2.27,1.12,5.5,1.33,9.27,0.77c-1.81,1.88-1.91,4.11-0.62,5.76c1.28,1.65,3.91,2.76,7.43,2.26c5.17-0.67,8.02-0.46,10,0.21
									c1.95,0.67,3.03,1.79,4.74,2.96c3.4,2.34,3.63,5.92,0.88,3.67c-6.5-4.89-12.64-3.2-13.43,0.41
									c-0.45,1.84-0.35,3.39,0.37,4.81c0.65,1.43,1.91,2.73,3.87,4.05c-2.16,1.1-2.99,3.36-2.39,5.24
									c0.15,0.47,0.39,0.92,0.72,1.32c0.31,0.4,0.71,0.76,1.2,1.05c0.99,0.57,2.36,0.87,4.12,0.66c5.92,0.11,9.39,1.94,11.37,4.06
									c1.97,2.11,2.51,4.47,2.38,5.55"/>
							</g>
							<g>
								<path class="st6" d="M466.99,156.4c-1.36-2.52-2.42-5.18-2.71-7.22c-0.29-2.03,0.35-3.56,2.67-3.88
									c3.05-0.46,4.97,5.06,5.12,7.15c-0.1-1.43,0.85-3.9,2.88-3.65c1.38,0.09,2.56,1.54,3.58,3.92c0.53,1.17,0.94,2.62,1.31,4.25
									c0.37,1.62,0.7,3.41,1,5.32c0.13,1.58,0.3,3.08,0.53,4.51c0.18,1.45,0.38,2.84,0.64,4.16c0.51,2.63,1.21,5,2.03,7.14
									c1.53,4.35,3.52,7.88,5.81,10.8c-0.93-2.86-1.36-5.62-1.41-8.16c-0.03-1.27,0.04-2.48,0.19-3.62
									c0.14-1.14,0.31-2.17,0.58-3.12c1.05-3.8,3.25-6.12,5.83-5.52c1.56,0.29,2.87,1.03,3.96,2.03c1.09,1,1.85,2.32,2.45,3.66
									c1.18,2.71,1.5,5.63,1.15,7.27c2.14-2.23,5.24-0.22,6.74,2.04c1,1.46,1.89,3.12,2.12,5.27c0.21,2.15-0.14,4.75-1.97,8.12
									c-3.53,5.55-5.01,9.45-5.62,12.56c-0.68,3.12-0.57,5.47-0.79,7.61c-0.45,4.35,2.73,4.89,2.62,1.23
									c0.75-6.21,2.21-9.92,3.68-12.01c1.52-2.12,3.31-2.7,4.76-2.85c1.47-0.13,3.16,0.96,4.3,2.68c1.13,1.72,1.82,4.01,1.55,6.14
									c4.55-3.37,8.36-3.35,11.89,2.44c1.9,3.82,1.95,7.09,0.64,9.65c-1.32,2.57-4.01,4.45-7.6,5.67
									c2.53,1.19,3.56,3.81,3.14,6.29c-0.43,2.5-2.36,4.84-5.8,5.66c-5.04,1.31-7.57,2.59-9.16,3.98
									c-1.63,1.39-2.31,2.9-3.58,4.61c-2.52,3.39-1.66,6.91,0.29,3.92c4.71-6.82,10.99-7.54,12.93-3.65
									c1.02,1.91,1.44,3.72,1.22,5.52c-0.29,1.81-1.25,3.63-2.88,5.55c2.35,0.73,3.66,3.17,3.48,5.45
									c-0.04,0.57-0.18,1.13-0.42,1.64c-0.26,0.52-0.61,0.99-1.07,1.4c-0.92,0.81-2.24,1.33-4.02,1.35
									c-5.86,0.98-9.12,3.3-10.87,5.59c-1.76,2.3-1.96,4.62-1.92,5.69"/>
							</g>
						</g>
						<g>
							<g>
								<path class="st6" d="M486.65,383.69c-1.53,2.5-3.45,4.63-4.86,2.72c-0.91-1.22,0.92-3.32,1.79-3.91
									c-0.6,0.4-1.9,0.57-2.34-0.35c-0.33-0.6-0.03-1.43,0.71-2.41c0.37-0.49,0.85-1.02,1.42-1.59c0.56-0.57,1.16-1.2,1.84-1.84
									c2.39-1.96,4.07-4.01,5.22-6c0.6-0.99,0.99-2,1.28-2.98c0.29-0.98,0.48-1.93,0.6-2.84c-1.38,2.67-3.33,4.43-5.2,5.17
									c-1.83,0.76-3.43,0.58-4.07-0.53c-0.84-1.3-0.62-2.7-0.13-3.92c0.5-1.22,1.39-2.22,2.08-2.61
									c-1.56-0.04-1.99-1.67-1.86-2.85c0.16-1.57,0.81-3.16,4.22-4.42c6.11-1.78,7.09-4.18,8.48-5.77c1.42-1.67,0.2-2.71-0.78-1.2
									c-4.12,4.59-6.42,4.01-7.73,3.32c-1.32-0.75-1.45-3.35-0.07-4.73c-2.88,0.04-4.45-0.98-4.57-3.78
									c-0.02-3.55,2.73-4.63,6.57-4.06c-1.82-2,0.15-4.83,3.66-4.25c5.25,0.81,5.77-0.31,7.57-1.44c1.78-1.14,1.98-2.96,0.53-1.87
									c-3.42,2.38-6.53,1.43-6.84-0.51c-0.37-1.97,0.35-3.3,2.49-4.57c-2.04-1.28-1.43-4.94,2.16-4.21
									c6.04,0.4,7.41-3.16,7.48-4.26"/>
							</g>
							<g>
								<path class="st6" d="M486.96,383.83c-0.91,2.77-1.31,5.67,1.04,5.55c1.51-0.09,1.98-2.96,1.87-4.02
									c0.08,0.72,0.78,1.86,1.78,1.56c0.68-0.16,1.14-0.97,1.43-2.23c0.15-0.63,0.25-1.36,0.33-2.18
									c0.07-0.82,0.06-1.75,0.05-2.72c-0.3-3.21-0.07-5.87,0.51-8.13c0.31-1.12,0.62-2.17,1-3.13c0.39-0.96,0.83-1.83,1.32-2.63
									c-0.59,3-0.19,5.7,0.55,7.53c0.78,1.84,2.04,2.85,3.31,2.41c1.51-0.46,2.49-1.72,2.89-3.11c0.42-1.39,0.39-2.84,0.11-3.64
									c1.22,1.01,2.62-0.11,3.3-1.25c0.87-1.49,1.57-3.34-0.47-6.56c-4-5.28-3.52-7.78-3.8-9.94c-0.27-2.19,1.35-2.48,1.33-0.65
									c0.9,6.22,3.09,7.17,4.58,7.26c1.52,0.08,3.13-2.32,2.79-4.39c2.36,1.61,4.35,1.57,5.98-1.24c1.8-3.69-0.06-6.22-3.73-7.47
									c2.57-1.13,2.31-4.95-1.24-5.88c-5.12-1.47-5.17-2.75-6.4-4.54c-1.22-1.77-0.7-3.54,0.23-1.98
									c2.26,3.56,5.46,4.01,6.52,2.16c1.11-1.83,0.98-3.5-0.52-5.51c2.52-0.54,2.88-4.62-0.71-4.96c-5.88-1.5-6.19-5.24-5.94-6.31
									"/>
							</g>
						</g>
					</g>
					<g>
						<path class="st5" d="M457.5,431.64l-2.71,3.4l-1.36,1.7l-1.43,1.63l-5.74,6.54c-4.03,4.17-7.98,8.43-12.29,12.31l-3.17,2.98
							c-1.04,1.01-2.19,1.9-3.28,2.85c-2.22,1.87-4.4,3.78-6.65,5.6l-6.9,5.3c-0.58,0.44-1.14,0.89-1.73,1.31l-1.79,1.24l-3.58,2.48
							l-3.58,2.48c-1.22,0.79-2.46,1.54-3.69,2.31l-3.7,2.29c-1.24,0.75-2.44,1.57-3.73,2.24l-7.61,4.21
							c-1.25,0.73-2.57,1.35-3.87,1.99l-3.91,1.91l-3.91,1.91c-1.32,0.6-2.66,1.15-3.99,1.73c-2.67,1.12-5.31,2.33-8.02,3.38
							l-8.16,3.02l-2.04,0.75l-2.07,0.65l-4.15,1.3c-5.5,1.86-11.17,3.13-16.77,4.62c-5.69,1.13-11.34,2.46-17.1,3.21
							c-5.72,1-11.51,1.44-17.27,2.05c-5.79,0.28-11.58,0.72-17.39,0.61l-4.35,0.01c-1.45,0.03-2.9-0.11-4.35-0.16
							c-2.9-0.15-5.8-0.23-8.69-0.45l-8.66-0.83c-1.45-0.11-2.88-0.32-4.32-0.54l-4.3-0.63c-11.45-1.78-22.83-4.22-33.89-7.76"/>
						<g>
							<path class="st6" d="M317.33,515.91c-3,2.33-3.57,5.32-1.19,7c0.51,0.38,1.03,0.69,1.57,0.93c0.53,0.22,1.07,0.38,1.61,0.49
								c1.08,0.22,2.15,0.22,3.13,0.09c1.96-0.26,3.56-1.07,4.16-1.8c0.12,1.88,2.83,2.91,4.81,2.99c2.56,0.09,5.3-0.33,6.82-4.31
								c1.54-5.74,5.31-9.42,10.66-10.29c-0.11-1.04-0.37-2.04-0.78-3c-0.24-1.02-0.62-1.98-1.15-2.89
								c-4.77,2.3-9.87,1.51-13.88-2.99c-3.11-2.78-5.35-1.92-7.34-0.65c-1.52,0.97-3.38,2.81-2.73,4.62
								c-0.81-0.44-2.46-0.57-4.22-0.08c-0.88,0.25-1.79,0.66-2.64,1.27c-0.43,0.31-0.84,0.66-1.22,1.07
								c-0.39,0.39-0.75,0.83-1.08,1.34C312.28,511.97,313.7,514.81,317.33,515.91z"/>
						</g>
						<g>
							<g>
								<path class="st6" d="M459.38,428.75c0.78-1.19,1.37-2.5,1.87-3.71c0.49-1.21,0.83-2.37,0.94-3.38
									c0.22-2.03-0.5-3.48-2.79-3.79c-2.94-0.42-4.66,4.68-4.89,6.69c0.17-1.35-0.84-3.79-2.78-3.68
									c-1.33-0.02-2.49,1.18-3.51,3.29c-0.51,1.05-1,2.33-1.47,3.79c-0.23,0.73-0.47,1.5-0.7,2.32c-0.25,0.8-0.51,1.63-0.77,2.49
									c-0.63,2.92-1.47,5.56-2.46,7.94c-1.01,2.37-2.29,4.36-3.58,6.19c-1.33,1.79-2.67,3.42-4.2,4.69
									c-1.51,1.29-3.05,2.37-4.57,3.29c1.8-2.29,3.15-4.6,3.92-6.91c0.76-2.32,1.05-4.51,0.97-6.41c-0.17-3.8-1.86-6.43-4.34-6.7
									c-2.96-0.46-5.28,0.88-6.89,2.74c-1.64,1.83-2.68,4.09-2.8,5.63c-1.33-2.75-4.48-2.32-6.4-1.25
									c-1.24,0.74-2.53,1.55-3.39,3.12c-0.87,1.56-1.34,3.84-1.14,7.39c0.43,3.13,0.37,5.57,0.19,7.7c-0.2,2.1-0.61,3.8-1.12,5.23
									c-0.51,1.42-1.1,2.59-1.7,3.6c-0.62,0.98-1.24,1.84-1.76,2.72c-2.17,3.61-4.88,1.98-2.73-0.71
									c2.93-5.08,3.52-8.75,3.25-11.26c-0.28-2.51-1.48-3.95-2.56-4.91c-2.29-1.92-6.8-0.44-8.42,2.74
									c-1.85-5.22-4.81-7.59-9.68-6.21c-0.75,0.27-1.41,0.59-1.98,0.96c-0.58,0.35-1.08,0.73-1.49,1.18
									c-0.82,0.89-1.3,1.97-1.49,3.21c-0.38,2.49,0.41,5.62,2.1,9.03c-1.17-0.57-2.26-0.66-3.23-0.43
									c-0.98,0.21-1.82,0.79-2.41,1.65c-1.19,1.71-1.44,4.54,0.11,7.73c2.22,4.71,2.89,7.48,2.87,9.58
									c-0.01,1.05-0.2,1.93-0.45,2.8c-0.26,0.85-0.6,1.68-0.89,2.67c-1.2,3.93-4.55,5.22-3.24,1.93
									c2.69-7.64-0.81-12.97-4.5-12.64c-1.89,0.12-3.35,0.67-4.48,1.78c-0.57,0.55-1.05,1.26-1.49,2.08
									c-0.44,0.81-0.82,1.77-1.15,2.9c-3.43-3.46-9.65-0.44-6.75,6.04c3.47,11.32-2.85,15.42-4.93,16"/>
							</g>
							<g>
								<path class="st6" d="M459.91,429.15c1.04-0.99,2.01-2.03,3.02-2.87c1-0.85,1.99-1.55,2.93-1.99
									c1.88-0.88,3.54-0.73,4.55,1.36c1.27,2.67-3.18,6.36-5.16,7.12c1.37-0.5,3.94-0.43,4.37,1.61c0.36,1.35-0.71,2.88-2.68,4.56
									c-0.99,0.84-2.21,1.7-3.6,2.58c-0.7,0.44-1.44,0.89-2.21,1.34c-0.79,0.43-1.64,0.85-2.51,1.28
									c-2.97,1.19-5.57,2.46-7.86,3.82c-2.3,1.34-4.42,2.65-6.22,4.09c-1.83,1.41-3.32,2.96-4.76,4.4
									c-1.42,1.46-2.64,2.96-3.7,4.47c2.45-1.75,5.02-2.94,7.38-3.81c2.35-0.89,4.61-1.34,6.6-1.42c3.98-0.15,6.88,1.23,7.09,3.86
									c0.4,3.11-1.25,5.87-3.4,7.89c-2.18,1.99-4.94,3.13-6.6,3.31c2.8,1.36,1.78,4.85,0.19,7.07c-1.02,1.47-2.38,2.77-4.36,3.65
									c-1.99,0.86-4.64,1.24-8.33,0.66c-3.12-0.73-5.82-1.28-8.05-1.48c-2.24-0.22-4.09-0.19-5.67-0.02
									c-1.58,0.17-2.9,0.5-4.09,0.83c-1.22,0.29-2.3,0.61-3.36,0.82c-4.31,0.87-3.84,4.06-0.38,2.86
									c6.23-1.08,10.05-1.06,12.55-0.23c2.5,0.81,3.6,2.32,4.2,3.66c1.17,2.71-2.27,7.63-6.59,8.32c4.63,3.3,5.77,6.92,1.29,12.02
									c-0.75,0.77-1.5,1.42-2.24,1.96c-0.77,0.51-1.54,0.9-2.3,1.18c-1.52,0.57-3.01,0.71-4.44,0.47
									c-2.86-0.48-5.48-2.47-7.75-5.52c-0.18,1.39-0.78,2.58-1.67,3.43c-0.9,0.83-2.07,1.36-3.33,1.53
									c-2.52,0.34-5.35-0.79-7.19-3.81c-2.79-4.4-4.8-6.42-6.6-7.51c-0.9-0.54-1.76-0.85-2.64-1.1c-0.89-0.28-1.81-0.5-2.82-0.85
									c-4.01-1.38-7.11,0.49-3.66,1.45c7.95,2.44,10.57,8.19,7.45,11.2c-1.51,1.55-3.11,2.48-4.9,2.81
									c-0.9,0.16-1.84,0.18-2.85,0.02c-1.02-0.18-2.11-0.51-3.28-1c0.05,4.9-7.75,7.89-9.97,1.12
									c-5.51-10.54-12.74-9.65-14.69-8.73"/>
							</g>
						</g>
						<g>
							<g>
								<path class="st6" d="M249.81,518.16c-1.43-0.28-2.79-0.79-3.63-1.44c-0.84-0.64-1.14-1.43-0.45-2.38
									c0.87-1.22,3.43-0.05,4.26,0.54c-0.56-0.43-1.13-1.6-0.39-2.32c0.95-1.02,3.5,0.05,6.79,1.91c1.3,0.86,2.56,1.59,3.79,2.07
									c1.23,0.48,2.41,0.81,3.54,1.02c2.26,0.42,4.3,0.37,6.11,0.07c-5.95-1.14-9.01-5.49-7.27-7.42
									c1.95-2.41,5.62-1.24,6.82-0.14c-0.45-1.52,0.97-2.36,2.14-2.63c1.54-0.36,3.26-0.34,5.51,2.54
									c1.78,2.67,3.34,4.07,4.67,4.91c1.34,0.79,2.46,1,3.44,1.4c2.02,0.78,2.63-0.73,0.9-1.14c-5.63-2.31-5.8-4.82-5.55-6.24
									c0.15-0.75,0.84-1.3,1.7-1.64c0.86-0.33,1.9-0.37,2.77,0.04c-0.93-2.69-0.46-4.57,2.17-5.55c3.37-1.05,5.25,1.3,5.9,5.09
									c1.33-2.39,4.62-1.53,5.17,2.05c0.86,5.25,2.09,5.42,3.73,6.81c1.64,1.37,3.44,1.03,1.95-0.04
									c-3.33-2.58-3.4-5.82-1.64-6.68c1.77-0.88,3.24-0.74,5.1,0.88c0.57-2.42,4.26-2.83,4.68,0.78c1.5,5.88,5.33,6.16,6.38,5.79"
									/>
							</g>
							<g>
								<path class="st6" d="M249.77,518.5c-1.47,0.06-2.91,0.14-3.88,0.51c-0.98,0.38-1.49,1.05-1.06,2.16
									c0.54,1.43,3.41,1.07,4.39,0.57c-0.66,0.31-1.53,1.35-0.94,2.19c0.73,1.18,3.67,0.63,7.35-0.55
									c1.48-0.62,2.86-1.01,4.18-1.37c1.31-0.36,2.55-0.58,3.71-0.68c2.33-0.21,4.38,0.04,6.19,0.51
									c-6.03,0.58-9.85,4.6-8.26,6.69c1.82,2.59,6.02,1.78,7.35,0.8c-0.58,1.45,0.92,2.51,2.21,2.77c1.69,0.35,3.67,0.33,6.1-2.57
									c1.9-2.68,3.47-4.08,4.82-4.93c1.35-0.89,2.48-1.25,3.45-1.74c1.99-0.99,2.78,0.44,1.03,1.04c-5.63,2.97-5.85,5.2-5.48,6.69
									c0.2,0.73,0.99,1.35,1.97,1.58c0.98,0.24,2.14,0.16,3.07-0.34c-0.79,2.78-0.14,4.59,3.03,5.27
									c4.07,0.64,5.91-1.83,5.95-5.76c1.87,2.06,5.41,0.5,5.2-3.12c-0.19-5.32,1.01-5.74,2.34-7.43c1.31-1.67,3.16-1.7,1.95-0.36
									c-2.69,3.19-2.12,6.38-0.02,6.85c2.1,0.57,3.62-0.2,5.06-2.28c1.28,2.14,5.3,1.36,4.5-2.18c-0.39-6.04,3.07-7.42,4.15-7.6"
									/>
							</g>
						</g>
					</g>
					<g>
						<path class="st5" d="M195.2,505.2c-43.57-16.03-82.01-45.58-108.73-83.54c-26.78-37.9-41.85-83.96-42.48-130.37"/>
						<g>
							<path class="st6" d="M71.77,397.9c-3.18-2.12-6.26-1.71-7.07,1.04c-1.52,4.74,1.73,9.2,3.47,9.9
								c-0.88,0.35-1.36,1.25-1.54,2.29c-0.16,1.03-0.03,2.22,0.23,3.17c0.68,2.48,1.9,4.97,6.14,5.2c2.96-0.15,5.69,0.35,7.88,1.54
								c2.21,1.18,3.95,3.02,5.18,5.46c0.97-0.43,1.83-0.99,2.62-1.68c0.89-0.55,1.69-1.2,2.39-1.98c-1.81-1.92-2.89-4.18-3.17-6.59
								c-0.26-2.42,0.23-4.93,1.75-7.54c1.71-3.83,0.23-5.7-1.58-7.22c-0.69-0.58-1.65-1.14-2.62-1.42
								c-0.96-0.29-1.91-0.3-2.67,0.28c0.34-1.83-1.43-6.44-6.23-7.62C73.87,391.93,71.65,394.13,71.77,397.9z"/>
						</g>
						<g>
							<g>
								<path class="st6" d="M198.56,506.02c2.8,0.6,5.57,1.04,7.58,0.57c2.01-0.45,3.18-1.61,2.76-3.86
									c-0.55-2.8-5.86-3.09-7.86-2.65c1.36-0.3,3.33-1.92,2.65-3.78c-0.39-1.29-1.91-1.96-4.24-2.24
									c-1.18-0.11-2.53-0.23-4.04-0.26c-1.52-0.03-3.21,0-5.02,0.07c-1.49,0.17-2.95,0.3-4.33,0.31c-1.37-0.02-2.7-0.1-3.97-0.23
									c-2.55-0.27-4.9-0.75-7.04-1.41c-4.19-1.51-7.62-3.54-10.29-5.9c2.71,1.06,5.42,1.45,7.82,1.52
									c2.42,0.03,4.55-0.25,6.36-0.97c3.59-1.38,5.58-3.82,5.06-6.23c-0.25-1.47-0.89-2.61-1.72-3.55
									c-0.83-0.97-1.87-1.68-2.99-2.19c-2.24-1.02-4.77-1.21-6.28-0.83c2.2-2.1,0.83-4.99-0.75-6.55
									c-2.11-2.06-4.89-3.48-11.41-1.06c-5.59,2.58-9.66,3.33-12.61,3.16c-2.99-0.13-5.06-0.93-7.09-1.33
									c-2.09-0.4-2.92-1.46-2.84-2.2c0.07-0.74,1.05-1.19,2.64-0.57c5.87,1.04,9.44,0.59,11.73-0.42c2.28-1.02,3.28-2.6,3.86-3.94
									c1.11-2.77-1.57-6.79-5.2-7.19c2.22-1.7,3.64-3.44,4.16-5.26c0.26-0.91,0.29-1.84,0.07-2.8c-0.19-0.99-0.62-2.02-1.31-3.1
									c-1.89-2.61-4.2-3.41-6.68-3.01c-2.46,0.38-5.17,2.09-7.88,4.75c0.37-2.59-0.92-4.4-2.95-4.95
									c-2.03-0.55-4.73,0.01-7.29,2.49c-7.57,7.14-9.64,5.94-13.82,6.12c-1.04,0.04-1.97-0.1-2.72-0.33
									c-0.73-0.25-1.28-0.6-1.6-0.93c-0.63-0.67-0.3-1.3,1.44-1.18c1.99,0.08,3.8-0.23,5.3-0.75c1.5-0.51,2.72-1.24,3.63-2.06
									c1.82-1.65,2.45-3.71,1.67-5.39c-1.36-3.57-3.82-4.91-8.61-4.7c1.06-2.12,0.46-4.49-1.09-5.69c-1.55-1.2-4.06-1.3-6.68,1.11
									c-2.44,1.7-4.63,2.7-6.58,3.2c-1.95,0.51-3.66,0.53-5.05,0.23c-2.8-0.58-4.54-2.24-5.12-3.15"/>
							</g>
							<g>
								<path class="st6" d="M198.34,506.65c2.58,1.23,5,2.78,6.43,4.24c1.42,1.48,1.8,3.09,0.12,4.71
									c-2.19,2.16-6.99-1.16-8.34-2.77c0.92,1.1,1.6,3.65-0.19,4.65c-1.17,0.74-2.97,0.25-5.19-1.07
									c-1.12-0.63-2.3-1.58-3.55-2.67c-1.25-1.09-2.58-2.34-3.94-3.7c-1.03-1.21-2.07-2.3-3.07-3.35
									c-0.99-1.08-1.98-2.07-2.97-2.98c-1.97-1.82-3.92-3.31-5.85-4.56c-3.76-2.69-7.52-4.23-11.04-5.33
									c2.39,1.84,4.41,3.74,5.94,5.77c1.55,1.99,2.63,4.11,3.34,5.92c1.39,3.69,0.98,6.85-1.46,7.89
									c-1.42,0.68-2.94,0.88-4.39,0.69c-1.45-0.22-2.86-0.78-4.13-1.52c-2.55-1.48-4.54-3.65-5.23-5.16
									c-0.44,3.1-4.06,3.18-6.62,2.28c-3.32-1.17-6.92-3.18-8.01-10.74c-0.43-6.55-1.6-10.46-2.84-13.47
									c-1.28-2.95-2.79-4.72-3.88-6.57c-1.14-1.85-2.35-2.49-3.06-2.25c-0.71,0.24-0.89,1.33,0.2,2.82
									c3.09,5.41,4.15,9.19,4.13,11.83c-0.02,2.65-1.11,4.17-2.19,5.14c-2.22,1.97-7.83,0.03-9.93-3.71
									c-0.85,2.69-2.03,4.6-3.81,5.51c-0.89,0.46-1.92,0.67-3.13,0.6c-1.18-0.1-2.53-0.48-4.06-1.17
									c-3.8-1.95-5.83-4.49-6.26-7.36c-0.41-2.9,0.68-6.03,2.88-9.14c-2.74,0.51-5.16-0.94-6.31-3.17
									c-1.15-2.24-0.88-5.36,1.41-8.04c6.63-8.05,5.25-10.19,5.24-14.41c0-1.05-0.18-1.97-0.44-2.72
									c-0.24-0.76-0.56-1.36-0.88-1.7c-0.64-0.68-1.3-0.4-1.22,1.41c0,2.11-0.23,3.9-0.68,5.42c-0.46,1.52-1.13,2.77-1.94,3.7
									c-1.62,1.85-3.79,2.42-5.73,1.46c-3.84-1.96-5.46-4.98-5.14-9.95c-2.37,0.83-4.8-0.44-5.96-2.41
									c-1.16-1.98-0.99-4.65,1.87-6.77c2.08-2.11,3.43-4.11,4.26-5.94c0.83-1.82,1.14-3.47,1.21-4.94
									c0.11-2.92-1.01-4.98-1.73-5.78"/>
							</g>
						</g>
						<g>
							<g>
								<path class="st6" d="M48.8,334.37c-0.25-2.92,0.03-5.76,2.3-5.05c1.45,0.45,1.23,3.22,0.87,4.21
									c0.24-0.67,1.2-1.58,2.09-1.09c1.27,0.58,0.94,3.36,0.2,7.07c-0.76,2.99-0.89,5.63-0.62,7.91c0.13,1.14,0.36,2.2,0.66,3.17
									c0.32,0.97,0.75,1.84,1.2,2.64c-0.54-2.94,0.2-5.57,1.2-7.25c1.02-1.69,2.42-2.48,3.59-1.96c2.88,1.11,2.8,5,2.23,6.45
									c1.28-0.89,2.6,0.17,3.21,1.2c0.8,1.36,1.29,3.01-0.79,6.06c-2.04,2.54-2.82,4.43-3.15,5.94c-0.34,1.52-0.22,2.66-0.3,3.71
									c-0.14,2.18,1.47,2.29,1.35,0.51c0.55-6.1,2.75-7,4.22-7.2c1.51-0.17,3.18,1.84,2.91,3.76c2.28-1.72,4.21-1.84,5.92,0.37
									c1.95,2.93,0.5,5.36-2.97,7.16c2.67,0.54,2.83,3.95-0.41,5.58c-4.73,2.43-4.53,3.66-5.36,5.65
									c-0.81,1.98,0.19,3.54,0.68,1.82c0.64-1.95,1.8-3.22,2.91-3.8c1.13-0.59,2.19-0.49,2.91,0.2c1.49,1.36,1.72,2.85,0.76,5.11
									c2.48-0.2,3.96,3.21,0.66,4.71c-5.19,3.26-4.12,6.9-3.51,7.82"/>
							</g>
							<g>
								<path class="st6" d="M48.47,334.44c-0.92-2.77-2.31-5.35-4.13-3.86c-1.17,0.96,0.16,3.55,0.88,4.34
									c-0.49-0.54-1.73-1.04-2.36-0.21c-0.9,1.06,0.44,3.7,2.71,6.84c2.15,2.41,3.55,4.69,4.44,6.85
									c0.44,1.08,0.76,2.13,0.97,3.14c0.23,1.01,0.42,1.97,0.5,2.9c-1.37-2.75-3.08-4.75-4.83-5.77c-1.72-1.03-3.34-1.09-4.1,0
									c-1.92,2.53,0.04,6.31,1.5,7.24c-1.59-0.1-2.04,1.63-1.91,2.95c0.17,1.72,0.78,3.6,4.26,5.02c3.08,1,4.97,2.03,6.24,3.03
									c1.27,1,1.93,1.98,2.69,2.76c1.54,1.6,0.41,2.79-0.68,1.3c-4.46-4.47-6.79-3.95-8.05-3.14c-1.27,0.82-1.13,3.7,0.39,5.17
									c-2.88,0.1-4.41,1.28-4.11,4.52c0.54,4.1,3.68,5,7.36,3.86c-1.4,2.42,1.14,5.32,4.52,4.01c5-1.82,5.76-0.79,7.76-0.05
									c1.99,0.73,2.7,2.43,0.99,1.73c-2-0.75-3.65-0.79-4.83-0.34c-1.16,0.44-1.86,1.38-1.73,2.43c0.21,2.12,1.33,3.37,3.75,4.11
									c-1.65,1.88,0.29,5.48,3.42,3.63c5.57-2.2,8.11,0.59,8.56,1.6"/>
							</g>
						</g>
					</g>
					<g>
						<path class="st5" d="M44.17,278.45l0.2-4.35c0.06-1.45,0.12-2.9,0.29-4.34l0.83-8.66c0.34-2.88,0.81-5.74,1.21-8.61
							c0.23-1.43,0.37-2.88,0.67-4.3l0.83-4.27c1-5.72,2.51-11.32,3.9-16.95l2.48-8.34l0.62-2.08l0.72-2.05l1.44-4.11
							c7.71-21.89,18.86-42.52,32.67-61.16c6.98-9.26,14.57-18.06,22.79-26.25c8.3-8.11,17.16-15.63,26.49-22.52
							c9.42-6.78,19.33-12.84,29.59-18.26c10.33-5.3,21.04-9.79,31.98-13.65"/>
						<g>
							<path class="st6" d="M108.09,127.89c1.08-3.62-0.29-6.45-3.15-6.37c-2.51-0.01-4.6,1.09-6.07,2.42
								c-1.44,1.36-2.21,2.99-2.27,3.94c-1.22-1.47-3.94-0.63-5.62,0.43c-1.09,0.7-2.14,1.51-2.79,2.67
								c-0.6,1.19-0.8,2.73-0.23,4.79c2.25,5.65,1.12,10.65-2.57,14.6c0.7,0.78,1.51,1.43,2.4,1.97c0.79,0.68,1.67,1.23,2.63,1.66
								c2.36-4.77,7.2-6.93,12.97-5.75c2.06,0.2,3.41-0.21,4.34-0.95c0.98-0.7,1.55-1.73,2.01-2.81c0.7-1.64,1.04-4.3-0.53-5.36
								c0.91-0.12,2.27-1.03,3.41-2.46c1.17-1.4,2.06-3.38,1.9-5.82C114.45,128.07,111.7,126.66,108.09,127.89z"/>
						</g>
						<g>
							<g>
								<path class="st6" d="M44.35,281.89c0.59,5.72,2.33,11.03,6.39,8.82c2.62-1.39,1.05-6.53,0.02-8.29
									c0.68,1.19,2.91,2.57,4.42,1.35c1.05-0.77,1.32-2.42,0.9-4.72c-0.2-1.15-0.56-2.47-1.03-3.93
									c-0.47-1.46-1.09-3.05-1.65-4.75c-1.19-2.73-2.06-5.36-2.65-7.88c-0.32-1.26-0.49-2.48-0.59-3.66
									c-0.11-1.18-0.15-2.34-0.15-3.45c0.02-2.23,0.2-4.33,0.63-6.26c0.47-1.93,1.08-3.71,1.79-5.34
									c-0.07,1.46-0.03,2.85,0.12,4.17c0.13,1.32,0.38,2.56,0.77,3.73c0.74,2.32,1.78,4.27,2.96,5.76
									c2.36,2.98,5.26,4.12,7.44,2.88c2.67-1.37,3.77-3.81,3.99-6.26c0.08-1.23,0.05-2.45-0.14-3.53
									c-0.19-1.08-0.52-2.03-0.91-2.68c2.68,1.45,5-0.75,5.92-2.74c0.57-1.33,1.1-2.75,0.9-4.52c-0.21-1.78-1.16-3.89-3.4-6.66
									c-2.17-2.28-3.6-4.3-4.68-6.13c-1.07-1.82-1.73-3.44-2.16-4.89c-0.43-1.45-0.62-2.74-0.74-3.91
									c-0.07-1.16-0.08-2.22-0.17-3.24c-0.37-4.2,2.78-4.47,2.62-1.03c0.61,5.84,2.3,9.15,3.98,11.02
									c1.7,1.87,3.52,2.33,4.96,2.47c2.99,0.21,5.77-3.64,5.2-7.17c4.57,3.14,8.35,3.32,11.49-0.67c0.46-0.66,0.79-1.31,1.04-1.94
									c0.27-0.62,0.44-1.23,0.52-1.83c0.14-1.2-0.11-2.36-0.68-3.48c-1.16-2.24-3.64-4.31-7.01-6.07
									c2.51-0.48,3.91-2.22,3.86-4.31c-0.05-2.08-1.52-4.53-4.65-6.19c-9.14-5.01-8.73-7.39-10.07-11.25
									c-1.36-3.89,0.57-6.91,1.46-3.48c2.36,7.78,8.32,10.02,11.09,7.57c1.45-1.22,2.29-2.53,2.55-4.1
									c0.27-1.56,0.05-3.33-0.76-5.57c2.4,0.38,4.4-0.96,5.02-2.83c0.59-1.89,0.01-4.24-3.11-6.01c-4.72-3.57-6.45-7.09-6.81-9.97
									c-0.36-2.87,0.61-5.09,1.35-5.89"/>
							</g>
							<g>
								<path class="st6" d="M43.68,281.87c-0.74,5.65-2.33,11.17-6.43,9c-2.6-1.42-1.14-7.01-0.01-8.79
									c-0.78,1.22-2.93,2.66-4.47,1.26c-1.12-0.88-1.12-2.75-0.51-5.27c0.31-1.26,0.8-2.68,1.41-4.21
									c0.62-1.53,1.33-3.18,2.28-4.89c1.72-2.71,3.08-5.26,4.14-7.7c0.51-1.22,1.02-2.41,1.48-3.56c0.45-1.16,0.83-2.29,1.15-3.4
									c0.65-2.21,1-4.34,1.26-6.36c0.3-2.02,0.41-3.94,0.39-5.79c-0.49,1.42-1.07,2.76-1.71,3.99c-0.65,1.23-1.35,2.37-2.02,3.43
									c-1.39,2.1-2.96,3.79-4.53,5.02c-3.15,2.45-6.3,3.04-8.01,1.04c-2.14-2.28-2.42-5.49-1.86-8.38
									c0.25-1.45,0.82-2.81,1.45-3.94c0.62-1.14,1.32-2.05,1.95-2.61c-3.07,0.54-4.29-2.88-4.29-5.62
									c-0.03-1.79,0.26-3.65,1.38-5.51c1.11-1.86,3.04-3.73,6.37-5.42c2.97-1.24,5.44-2.39,7.38-3.53
									c1.95-1.14,3.42-2.24,4.6-3.31c1.18-1.07,2.06-2.1,2.82-3.07c0.81-0.95,1.5-1.84,2.23-2.64c2.97-3.24,0.73-5.54-1.38-2.53
									c-4.4,4.53-7.5,6.76-10.01,7.56c-2.5,0.81-4.28,0.23-5.55-0.5c-2.54-1.51-2.65-7.5,0.44-10.59
									c-5.68,0.04-8.74-2.21-8.11-8.96c0.15-1.06,0.37-2.03,0.67-2.9c0.33-0.86,0.71-1.63,1.16-2.3c0.89-1.35,2.01-2.34,3.31-2.99
									c2.59-1.3,5.88-1.23,9.51-0.1c-1.4-2.48-0.69-5.2,1.13-6.95c1.83-1.76,4.77-2.51,8.04-1.15c9.69,3.82,11.21,1.81,15.33,0.55
									c4.04-1.25,5.42-4.6,2.09-3.33c-7.83,2.73-13.34-0.39-12.61-4.67c0.3-2.15,1.03-3.85,2.28-5.17c1.26-1.31,3.13-2.2,5.57-2.8
									c-1.47-1.97-1.09-4.71,0.39-6.45c1.45-1.76,4.15-2.36,7.03-0.31c5.32,2.65,9.31,2.69,12.08,1.86
									c2.77-0.83,4.31-2.58,4.9-3.48"/>
							</g>
						</g>
						<g>
							<g>
								<path class="st6" d="M161.4,86.4c2.71-1.11,5.52-1.69,5.53,0.68c0.02,1.51-2.7,2.13-3.76,2.09
									c0.72,0.03,1.88,0.66,1.69,1.66c-0.09,0.68-0.82,1.17-2,1.52c-0.59,0.18-1.3,0.32-2.08,0.45c-0.77,0.16-1.64,0.29-2.56,0.42
									c-3.09,0.17-5.65,0.84-7.76,1.77c-1.07,0.45-1.97,1.04-2.78,1.66c-0.81,0.62-1.52,1.27-2.15,1.94
									c2.69-1.34,5.29-1.63,7.24-1.13c1.93,0.46,3.12,1.55,2.98,2.83c-0.09,1.55-1.09,2.54-2.2,3.25
									c-1.12,0.69-2.42,0.98-3.22,0.89c1.24,0.95,0.63,2.52-0.17,3.4c-1.05,1.17-2.51,2.09-6.01,1.09
									c-5.98-2.14-8.18-0.77-10.24-0.3c-2.13,0.52-1.75,2.08-0.07,1.43c6.02-1.3,7.55,0.52,8.2,1.85
									c0.62,1.38-0.79,3.56-2.71,3.88c2.35,1.65,3.04,3.42,1.47,5.73c-2.06,2.9-4.91,2.16-7.69-0.56c0.3,2.69-2.94,3.84-5.47,1.28
									c-3.77-3.74-4.85-3.13-6.97-3.27c-2.11-0.12-3.33,1.25-1.52,1.21c4.16,0.08,6.12,2.66,5.24,4.42
									c-0.85,1.81-2.22,2.48-4.69,2.25c0.9,2.24-1.77,4.8-4.23,2.13c-4.65-3.87-7.85-1.78-8.55-0.92"/>
							</g>
							<g>
								<path class="st6" d="M161.23,86.1c2.37-1.7,4.4-3.8,2.43-5.08c-1.27-0.82-3.35,1.22-3.88,2.14
									c0.36-0.63,0.46-1.96-0.52-2.31c-0.65-0.28-1.49,0.11-2.47,0.95c-0.49,0.42-1.01,0.94-1.55,1.58
									c-0.53,0.65-1.07,1.39-1.63,2.19c-1.65,2.77-3.4,4.78-5.2,6.27c-0.91,0.72-1.77,1.4-2.65,1.95
									c-0.88,0.55-1.75,0.99-2.61,1.35c2.24-2.07,3.5-4.51,3.98-6.41c0.45-1.94,0.02-3.5-1.26-3.89
									c-1.49-0.52-3.03-0.08-4.17,0.82c-1.15,0.88-1.99,2.08-2.23,2.88c-0.39-1.54-2.18-1.44-3.41-0.93
									c-1.58,0.69-3.23,1.79-3.49,5.58c0.14,6.63-1.71,8.37-2.76,10.29c-1.06,1.93-2.55,1.22-1.46-0.26
									c2.92-5.57,1.7-7.62,0.55-8.57c-1.18-0.96-3.9,0.04-4.84,1.92c-0.97-2.69-2.59-3.81-5.58-2.52
									c-3.62,1.93-3.6,5.08-1.36,8.25c-2.75-0.59-4.76,2.67-2.46,5.49c3.29,4.19,2.57,5.27,2.52,7.44
									c-0.05,2.15-1.5,3.29-1.34,1.47c0.25-4.22-2.07-6.46-4.02-5.57c-1.97,0.84-2.84,2.26-2.8,4.78
									c-2.36-1.04-5.07,2.03-2.35,4.43c3.88,4.67,1.95,7.88,1.12,8.61"/>
							</g>
						</g>
					</g>
				</g>
			</g>
		</g>
	</g>
</g>
</svg>
